<svg xmlns="http://www.w3.org/2000/svg" xmlns:xlink="http://www.w3.org/1999/xlink" version="1.1" id="Icons" x="0px" y="0px" viewBox="0 0 48 48" style="enable-background:new 0 0 48 48;" xml:space="preserve">
<style type="text/css">
	.st0{opacity:0.15;fill:#45413C;}
	.st1{fill:#FFE500;}
	.st2{fill:#EBCB00;}
	.st3{fill:none;stroke:#45413C;stroke-linecap:round;stroke-linejoin:round;stroke-miterlimit:10;}
	.st4{fill:#FFAA54;}
	.st5{fill:#FF8A14;}
	.st6{fill:#FFB0CA;stroke:#45413C;stroke-linecap:round;stroke-linejoin:round;stroke-miterlimit:10;}
	.st7{fill:#FF87AF;stroke:#45413C;stroke-linecap:round;stroke-linejoin:round;stroke-miterlimit:10;}
	.st8{fill:#FFCC99;}
	.st9{fill:#FFFFFF;}
	.st10{fill:#F0F0F0;}
	.st11{fill:#BF8256;}
	.st12{fill:#915E3A;}
	.st13{fill:#DEA47A;}
	.st14{fill:#F0D5A8;}
	.st15{fill:#DEBB7E;}
	.st16{fill:#F7E5C6;}
	.st17{fill:#FF8A14;stroke:#45413C;stroke-linecap:round;stroke-linejoin:round;stroke-miterlimit:10;}
	.st18{fill:#FFF5E3;}
	.st19{fill:#FFF48C;}
	.st20{fill:#FFFACF;}
	.st21{fill:#FFFCE5;}
	.st22{fill:#FF87AF;}
	.st23{fill:#FFB0CA;}
	.st24{fill:#FFE500;stroke:#45413C;stroke-linecap:round;stroke-linejoin:round;stroke-miterlimit:10;}
	.st25{fill:#9CEB60;stroke:#45413C;stroke-linecap:round;stroke-linejoin:round;stroke-miterlimit:10;}
	.st26{fill:#FFFACF;stroke:#45413C;stroke-linecap:round;stroke-linejoin:round;stroke-miterlimit:10;}
	.st27{fill:#00F5BC;stroke:#45413C;stroke-linecap:round;stroke-linejoin:round;stroke-miterlimit:10;}
	.st28{fill:#BF8256;stroke:#45413C;stroke-linecap:round;stroke-linejoin:round;stroke-miterlimit:10;}
	.st29{fill:#FFE3CF;stroke:#45413C;stroke-linecap:round;stroke-linejoin:round;stroke-miterlimit:10;}
	.st30{fill:#FF6242;}
	.st31{fill:#FF866E;}
	.st32{fill:none;stroke:#E04122;stroke-linecap:round;stroke-linejoin:round;stroke-miterlimit:10;}
	.st33{fill:#FFFEF2;stroke:#45413C;stroke-linecap:round;stroke-linejoin:round;stroke-miterlimit:10;}
	.st34{fill:#FF6242;stroke:#45413C;stroke-linecap:round;stroke-linejoin:round;stroke-miterlimit:10;}
	.st35{fill:#FFA694;}
	.st36{fill:#FFFFFF;stroke:#45413C;stroke-linecap:round;stroke-linejoin:round;stroke-miterlimit:10;}
	.st37{fill:#FFFEF2;}
	.st38{fill:#FF6196;}
	.st39{fill:#B89558;}
	.st40{fill:none;stroke:#915E3A;stroke-linecap:round;stroke-linejoin:round;stroke-miterlimit:10;}
	.st41{fill:#DEBB7E;stroke:#45413C;stroke-linecap:round;stroke-linejoin:round;stroke-miterlimit:10;}
	.st42{fill:#6DD627;stroke:#45413C;stroke-linecap:round;stroke-linejoin:round;stroke-miterlimit:10;}
	.st43{fill:#E5F8FF;}
	.st44{fill:#E8F4FA;}
	.st45{fill:#E8F4FA;stroke:#45413C;stroke-linecap:round;stroke-linejoin:round;stroke-miterlimit:10;}
	.st46{fill:#FFCCDD;}
	.st47{fill:#E5F8FF;stroke:#45413C;stroke-linecap:round;stroke-linejoin:round;stroke-miterlimit:10;}
	.st48{fill:#00B8F0;stroke:#45413C;stroke-linecap:round;stroke-linejoin:round;stroke-miterlimit:10;}
	.st49{fill:#00B8F0;}
	.st50{fill:#4ACFFF;}
	.st51{fill:#E04122;}
	.st52{fill:#E04122;stroke:#45413C;stroke-linecap:round;stroke-linejoin:round;stroke-miterlimit:10;}
	.st53{fill:#87898C;}
	.st54{fill:#BDBEC0;}
	.st55{fill:#656769;}
	.st56{fill:#525252;}
	.st57{fill:#FFF48C;stroke:#45413C;stroke-linecap:round;stroke-linejoin:round;stroke-miterlimit:10;}
	.st58{fill:#6DD627;}
	.st59{fill:#EB6D00;}
	.st60{fill:#46B000;}
	.st61{fill:#80DDFF;}
	.st62{fill:#DAEDF7;}
	.st63{fill:#BF8DF2;stroke:#45413C;stroke-linecap:round;stroke-linejoin:round;stroke-miterlimit:10;}
	.st64{fill:#9F5AE5;stroke:#45413C;stroke-linecap:round;stroke-linejoin:round;stroke-miterlimit:10;}
	.st65{fill:#C8FFA1;}
	.st66{fill:#E4FFD1;}
	.st67{fill:#9CEB60;}
	.st68{fill:#E5FEFF;}
	.st69{fill:#B8ECFF;}
	.st70{fill:#E0E0E0;stroke:#45413C;stroke-linecap:round;stroke-linejoin:round;stroke-miterlimit:10;}
	.st71{fill:#E0E0E0;}
	.st72{fill:none;stroke:#4F4B45;stroke-linejoin:round;stroke-miterlimit:10;}
	.st73{fill:none;stroke:#4F4B45;stroke-linecap:round;stroke-linejoin:round;stroke-miterlimit:10;}
	.st74{fill:#E0366F;stroke:#45413C;stroke-linecap:round;stroke-linejoin:round;stroke-miterlimit:10;}
	.st75{fill:none;stroke:#45413C;stroke-miterlimit:10;}
	.st76{fill:#FF866E;stroke:#45413C;stroke-linecap:round;stroke-linejoin:round;stroke-miterlimit:10;}
	.st77{fill:#45413C;stroke:#45413C;stroke-linecap:round;stroke-linejoin:round;stroke-miterlimit:10;}
	.st78{fill:#9F5AE5;}
	.st79{fill:#803EC2;}
	.st80{fill:#803EC2;stroke:#45413C;stroke-linecap:round;stroke-linejoin:round;stroke-miterlimit:10;}
	.st81{fill:#BF8DF2;}
	.st82{fill:#FFAA54;stroke:#45413C;stroke-linecap:round;stroke-linejoin:round;stroke-miterlimit:10;}
	.st83{fill:none;stroke:#45413C;stroke-linejoin:round;stroke-miterlimit:10;}
	.st84{fill:#FFCCDD;stroke:#45413C;stroke-linecap:round;stroke-linejoin:round;stroke-miterlimit:10;}
	.st85{fill:#FF6196;stroke:#45413C;stroke-linecap:round;stroke-linejoin:round;stroke-miterlimit:10;}
	.st86{fill:#FFE5EE;}
	.st87{fill:#F7E5C6;stroke:#45413C;stroke-linecap:round;stroke-linejoin:round;stroke-miterlimit:10;}
	.st88{fill:#E5FFF9;}
	.st89{fill:none;stroke:#45413C;stroke-width:1.0064;stroke-linecap:round;stroke-linejoin:round;stroke-miterlimit:10;}
	.st90{fill:#4AEFF7;}
	.st91{fill:#A6FBFF;}
	.st92{fill:#E5FEFF;stroke:#45413C;stroke-linecap:round;stroke-linejoin:round;stroke-miterlimit:10;}
	.st93{fill:#46B000;stroke:#45413C;stroke-linecap:round;stroke-linejoin:round;stroke-miterlimit:10;}
	.st94{fill:#FFFFFF;stroke:#45413C;stroke-linejoin:round;stroke-miterlimit:10;}
	.st95{fill:#FFFFFF;stroke:#45413C;stroke-miterlimit:10;}
	.st96{fill:#009FD9;}
	.st97{fill:#00DFEB;}
	.st98{fill:#C0DCEB;stroke:#45413C;stroke-linecap:round;stroke-linejoin:round;stroke-miterlimit:10;}
	.st99{fill:#00DFEB;stroke:#45413C;stroke-linecap:round;stroke-linejoin:round;stroke-miterlimit:10;}
	.st100{fill:#FFE5EE;stroke:#45413C;stroke-linecap:round;stroke-linejoin:round;stroke-miterlimit:10;}
	.st101{fill:#8CA4B8;}
	.st102{fill:#ADC4D9;}
	.st103{fill:#656769;stroke:#45413C;stroke-linecap:round;stroke-linejoin:round;stroke-miterlimit:10;}
	.st104{fill:#F0F0F0;stroke:#45413C;stroke-linecap:round;stroke-linejoin:round;stroke-miterlimit:10;}
	.st105{fill:#C0DCEB;}
	.st106{fill:#45413C;}
	.st107{fill:#FFCABF;}
	.st108{fill:#87898C;stroke:#45413C;stroke-linecap:round;stroke-linejoin:round;stroke-miterlimit:10;}
	.st109{fill:#EBCB00;stroke:#45413C;stroke-linecap:round;stroke-linejoin:round;stroke-miterlimit:10;}
</style>
<g id="XMLID_14153_">
	<ellipse id="XMLID_14165_" class="st0" cx="20.5" cy="45.3" rx="12.9" ry="1.7"/>
	<path id="XMLID_14164_" class="st53" d="M36.4,9.2L32,13.6C25.1,8,15,8.4,8.6,14.8c-6.8,6.8-6.8,17.8,0,24.6   c6.8,6.8,17.8,6.8,24.6,0C39.6,33,40,22.9,34.4,16l4.4-4.4L36.4,9.2z"/>
	<path class="st54" d="M34.8,10.8L32,13.6C25.1,8,15,8.4,8.6,14.8c-3.7,3.7-5.4,8.7-5,13.6c0.3-4,2-7.9,5-11   c5.9-5.9,15-6.7,21.8-2.3c1,0.6,2.3,0.5,3.1-0.3l2.6-2.6L34.8,10.8z"/>
	<path id="XMLID_14163_" class="st3" d="M36.4,9.2L32,13.6C25.1,8,15,8.4,8.6,14.8c-6.8,6.8-6.8,17.8,0,24.6   c6.8,6.8,17.8,6.8,24.6,0C39.6,33,40,22.9,34.4,16l4.4-4.4L36.4,9.2z"/>
	<path class="st1" d="M43.9,4.1c-1.1-1.1-2.9-1.1-4,0l-5.2,5.2c-0.4,0.4-0.4,1.1,0,1.6l2.4,2.4c0.4,0.4,1.1,0.4,1.6,0L43.9,8   C45,6.9,45,5.2,43.9,4.1z"/>
	<path class="st19" d="M43.9,4.1c-1.1-1.1-2.9-1.1-4,0l-5.2,5.2c-0.4,0.4-0.4,1.1,0,1.6l0.9,0.9c0-0.1,0.1-0.1,0.1-0.2L41,6.3   c1-1,2.7-1.1,3.8-0.1C44.8,5.4,44.5,4.6,43.9,4.1z"/>
	<path id="XMLID_14162_" class="st3" d="M43.9,4.1c1.1,1.1,1.1,2.9,0,4l-5.2,5.2c-0.4,0.4-1.1,0.4-1.6,0l-2.4-2.4   c-0.4-0.4-0.4-1.1,0-1.6L40,4.1C41.1,3,42.8,3,43.9,4.1z"/>
	
		<ellipse id="XMLID_14161_" transform="matrix(0.7071 -0.7071 0.7071 0.7071 -13.0311 22.7202)" class="st55" cx="20.9" cy="27.1" rx="14" ry="14"/>
	<path id="XMLID_14160_" class="st56" d="M11,20.5c5.5-5.5,14.4-5.5,19.9,0c2.3,2.3,3.6,5.2,4,8.2c0.5-4.1-0.8-8.4-4-11.6   c-5.5-5.5-14.4-5.5-19.9,0c-3.2,3.2-4.5,7.5-4,11.6C7.3,25.8,8.7,22.8,11,20.5z"/>
	
		<ellipse id="XMLID_14159_" transform="matrix(0.7071 -0.7071 0.7071 0.7071 -13.0311 22.7202)" class="st3" cx="20.9" cy="27.1" rx="14" ry="14"/>
	<path id="XMLID_14158_" class="st10" d="M26.6,25.4c-0.9,0-1.7-0.7-1.7-1.7c0-3.4-2.8-5.4-5.6-4.9c-3.3,0.6-6,3.3-6.6,6.6   c-1.1,5.6,3.5,10.5,9,10c3.7-0.3,6.9-3.2,7.5-6.9C29.5,26.8,28.1,25.4,26.6,25.4z"/>
	<path class="st9" d="M12.7,28.6c0.6-3.3,3.3-6,6.6-6.6c2.8-0.5,5.6,1.5,5.6,4.9c0,0.9,0.7,1.7,1.7,1.7c1,0,1.9,0.5,2.4,1.3   c0.2-0.4,0.3-0.9,0.3-1.3c0.3-1.8-1.1-3.1-2.7-3.1c-0.9,0-1.7-0.7-1.7-1.7c0-3.4-2.8-5.4-5.6-4.9c-3.3,0.6-6,3.3-6.6,6.6   C12.5,26.6,12.5,27.7,12.7,28.6C12.7,28.7,12.7,28.6,12.7,28.6z"/>
	<path id="XMLID_14157_" class="st3" d="M26.6,25.4c-0.9,0-1.7-0.7-1.7-1.7c0-3.4-2.8-5.4-5.6-4.9c-3.3,0.6-6,3.3-6.6,6.6   c-1.1,5.6,3.5,10.5,9,10c3.7-0.3,6.9-3.2,7.5-6.9C29.5,26.8,28.1,25.4,26.6,25.4z"/>
	<circle id="XMLID_14156_" class="st4" cx="19.8" cy="28.2" r="3.4"/>
	<path id="XMLID_14155_" class="st8" d="M19.8,26.9c1.5,0,2.8,1,3.2,2.4c0.1-0.3,0.2-0.6,0.2-1c0-1.9-1.5-3.4-3.4-3.4   c-1.9,0-3.4,1.5-3.4,3.4c0,0.4,0.1,0.7,0.2,1C17,27.9,18.3,26.9,19.8,26.9z"/>
	<circle id="XMLID_14154_" class="st3" cx="19.8" cy="28.2" r="3.4"/>
</g>
</svg>